<svg xmlns="http://www.w3.org/2000/svg" viewBox="0 0 135 45">
  <path fill="#0094ee" d="M0 0h135v45H0z"/>
  <path fill="#fff" fill-opacity=".901961" d="M29.759 29.981c-.074.363-.161.722-.266 1.077-.284.958-.683 1.882-1.187 2.745-.867 1.486-2.041 2.787-3.429 3.802-1.247.913-2.663 1.59-4.156 1.988-1.251.332-2.552.468-3.844.403-1.328-.066-2.644-.345-3.883-.825-1.43-.554-2.754-1.373-3.889-2.403-1.277-1.16-2.31-2.582-3.014-4.157-.434-.97-.743-1.995-.917-3.043-.06-.357-.103-.717-.131-1.077-.013-.156-.022-.312-.028-.468-.002-.041-.031-.152-.002-.123l-.008-.245c.003-.242 0-9.768 0-10.138-.001-1.208.173-2.415.518-3.573.333-1.119.825-2.19 1.455-3.173.836-1.304 1.915-2.449 3.166-3.362 1.021-.744 2.155-1.333 3.352-1.738 1.188-.403 2.435-.623 3.689-.655 1.312-.033 77.71-.004 77.967-.004.531.002 1.062.087 1.566.255.449.149.877.362 1.266.631s.739.593 1.038.96c.099.122.187.254.28.38l3.34 5.01 3.34-5.01.28-.38c.105-.117.205-.24.315-.352.222-.225.464-.429.723-.608.65-.448 1.404-.739 2.186-.843.349-.046.593-.048.944-.035.065.003.131.014.196.021l.055-.008.674-.021h7.516c.154.001.309.003.463.009.422.016.844.053 1.262.112 1.124.157 2.226.469 3.266.924 1.471.644 2.813 1.574 3.935 2.723 1.053 1.078 1.908 2.345 2.512 3.725.54 1.232.877 2.552.996 3.892.113 1.263.033 2.543-.237 3.782-.315 1.444-.889 2.83-1.687 4.074-1.026 1.599-2.417 2.957-4.041 3.945-.824.501-1.706.906-2.623 1.204-.294.095-.591.18-.892.253-.151.037-.304.071-.456.103l-.014.003v5.251l-.022.461c-.021.153-.035.306-.064.458-.084.454-.233.896-.439 1.31-.343.69-.847 1.297-1.462 1.761-.492.371-1.052.65-1.645.819-.297.084-.6.141-.907.17-.153.014-.308.014-.461.021h-5c-.154-.007-.309-.007-.462-.021-.307-.029-.61-.086-.907-.17-.741-.211-1.43-.595-2-1.114-.57-.519-1.015-1.17-1.294-1.889-.167-.431-.273-.885-.316-1.345-.014-.153-.014-.307-.021-.461v-5H95.142l-.461-.021-.039-.006-.038.006-.462.021-64.383-.031z"/>
  <path fill="#ff8b8b" d="M10.008 27.726h-.003l.003-.214h4.572c0 1.736 1.17 3.35 2.925 3.35 1.754 0 2.925-1.604 2.925-3.35l-.003-9.786h4.575l.003 10h-.003c-.114 4.04-3.43 7.286-7.497 7.286-4.068 0-7.384-3.246-7.497-7.286z"/>
  <circle cx="17.505" cy="17.512" r="7.5" fill="#0bbcd6"/>
  <path fill="#f0cf61" d="M38.807 22.814c-1.358 1.358-3.233 2.198-5.302 2.198-4.14 0-7.5-3.361-7.5-7.5 0-4.139 3.36-7.5 7.5-7.5 2.069 0 3.944.84 5.302 2.198l-5.302 5.302 5.302 5.302z"/>
  <path fill="#f0cf61" d="M51.807 22.814c-1.358 1.358-3.233 2.198-5.302 2.198-4.14 0-7.5-3.361-7.5-7.5 0-4.139 3.36-7.5 7.5-7.5 2.069 0 3.944.84 5.302 2.198l-5.302 5.302 5.302 5.302z"/>
  <path fill="#61bfad" d="M86.642 10.012l7.5 15h-15l7.5-15z"/>
  <path fill="#61bfad" d="M53.444 10.012h5v15h-5z"/>
  <path fill="#f0cf61" d="M95.142 10.012l10 15h-10v-15z"/>
  <path fill="#ff8b8b" d="M110.142 10.012l-10 15h10v-15z"/>
  <path fill="#ff8b8b" d="M60.944 10.012h7l.036.035-7.465 7.465 7.465 7.464-.036.036h-7l-7.5-7.5 7.5-7.5z"/>
  <path fill="#0bbcd6" d="M118.855 10.012c4.139 0 7.5 3.361 7.5 7.5 0 4.139-3.361 7.5-7.5 7.5h-7.5v-15h7.5z"/>
  <path fill="#0bbcd6" d="M75.607 19.279l3.535 3.535c-1.358 1.358-3.233 2.198-5.302 2.198-4.14 0-7.5-3.361-7.5-7.5 0-4.139 3.36-7.5 7.5-7.5 2.069 0 3.944.84 5.302 2.198l-3.535 3.535c-.452-.453-1.077-.733-1.767-.733-1.38 0-2.5 1.12-2.5 2.5s1.12 2.5 2.5 2.5c.69 0 1.315-.28 1.767-.733z"/>
  <path fill="#61bfad" d="M111.355 10.012h5v25h-5z"/>
</svg>
