<svg xmlns="http://www.w3.org/2000/svg" viewBox="0 0 270 90">
  <path fill="#0094EE" d="M0 90.002h270v-90H0z"/>
  <path fill="#fff" fill-opacity=".902" d="M59.52 59.962c-.15.727-.324 1.446-.536 2.15-.566 1.922-1.365 3.767-2.372 5.496-1.734 2.97-4.08 5.572-6.86 7.604-2.494 1.823-5.325 3.18-8.312 3.973-2.5.668-5.1.935-7.69.808-2.65-.132-5.286-.69-7.764-1.65-2.856-1.108-5.503-2.745-7.777-4.806-2.56-2.32-4.62-5.164-6.03-8.313-.87-1.942-1.49-3.99-1.84-6.09-.12-.71-.21-1.432-.27-2.15-.02-.315-.048-.625-.06-.94 0-.08-.06-.302 0-.242L10 55.31c.004-.49 0-19.54 0-20.28 0-2.42.344-4.83 1.03-7.15.67-2.24 1.656-4.38 2.914-6.347 1.674-2.606 3.83-4.9 6.332-6.724 2.043-1.49 4.31-2.67 6.7-3.48 2.375-.81 4.87-1.25 7.38-1.31 2.624-.07 155.42-.01 155.934-.01 1.063 0 2.12.17 3.132.51.897.294 1.75.72 2.533 1.26.776.534 1.477 1.184 2.073 1.92.2.242.373.51.56.76l6.68 10.015 6.68-10.018.56-.765c.213-.24.413-.48.634-.706.44-.45.926-.86 1.444-1.22 1.298-.896 2.806-1.48 4.37-1.687.697-.096 1.186-.1 1.887-.07.132.003.264.025.396.04l.11-.015 1.34-.044h15.033c.31 0 .615.004.925.017.842.034 1.684.106 2.52.225 2.25.314 4.45.94 6.53 1.85 2.947 1.286 5.63 3.143 7.877 5.44 2.103 2.157 3.81 4.69 5.02 7.45 1.08 2.468 1.753 5.107 1.99 7.784.225 2.53.067 5.087-.472 7.564-.63 2.89-1.78 5.66-3.375 8.15-2.05 3.2-4.832 5.917-8.08 7.893-1.643 1.004-3.41 1.81-5.243 2.406-.59.19-1.184.36-1.783.51-.3.07-.608.14-.914.2l-.024.005V70l-.05.923c-.04.307-.07.617-.124.92-.173.91-.466 1.793-.88 2.62-.687 1.382-1.695 2.593-2.927 3.524-.98.745-2.103 1.3-3.29 1.637-.59.17-1.197.286-1.81.34-.305.03-.615.03-.92.044h-10c-.31-.01-.613-.01-.92-.04-.615-.05-1.223-.17-1.813-.34-1.483-.42-2.86-1.182-4-2.223-1.142-1.04-2.03-2.34-2.587-3.78-.333-.86-.545-1.768-.63-2.69-.03-.306-.03-.61-.043-.923v-9.99h-22.43l-.923-.048-.08-.01-.074.01-.92.046-128.77-.067z"/>
  <path fill="#FF8B8B" d="M20.015 55.45h-.006v-.426h9.14c0 3.472 2.34 6.7 5.85 6.7 3.5 0 5.85-3.208 5.85-6.7l-.01-19.572H50l.007 20H50c-.227 8.08-6.858 14.572-14.994 14.572-8.137 0-14.768-6.49-14.995-14.573z"/>
  <circle cx="155" cy="195" r="15" fill="#0BBCD6" transform="translate(-119.99 -159.976)"/>
  <path fill="#F0CF61" d="M77.614 45.63c-2.716 2.714-6.466 4.394-10.605 4.394-8.28 0-15-6.72-15-15 0-8.28 6.72-15 15-15 4.13 0 7.88 1.68 10.6 4.395l-10.6 10.6 10.6 10.61zm26 0c-2.716 2.714-6.466 4.394-10.605 4.394-8.28 0-15-6.72-15-15 0-8.28 6.72-15 15-15 4.13 0 7.88 1.68 10.6 4.395l-10.6 10.6 10.6 10.6z"/>
  <path fill="#61BFAD" d="M173.284 20.024l15 30h-30l15-30zm-66.394 0h10v30h-10z"/>
  <path fill="#F0CF61" d="M190.284 20.024l20 30h-20v-30z"/>
  <path fill="#FF8B8B" d="M220.284 20.024l-20 30h20v-30zm-98.394 0h14l.07.07-14.93 14.93 14.93 14.93-.07.07h-14l-15-15 15-15z"/>
  <path fill="#0BBCD6" d="M237.71 20.024c8.278 0 15 6.72 15 15 0 8.28-6.722 15-15 15h-15v-30h15zM151.215 38.56l7.07 7.07c-2.716 2.714-6.466 4.394-10.605 4.394-8.28 0-15-6.72-15-15 0-8.28 6.72-15 15-15 4.14 0 7.89 1.68 10.605 4.395l-7.07 7.07c-.905-.91-2.155-1.47-3.535-1.47-2.76 0-5 2.24-5 5s2.24 5 5 5c1.38 0 2.63-.56 3.535-1.47z"/>
  <path fill="#61BFAD" d="M222.71 20.025h10v50h-10z"/>
  <text x="629.766" y="773.827" fill="#fff" font-family="'SFProText-Semibold', 'SF Pro Text'" font-weight="600" font-size="18.667" transform="translate(-550 -691.976)">
    SINGAPORE
  </text>
</svg>