<svg xmlns="http://www.w3.org/2000/svg" viewBox="0 0 175 40">
  <path fill="#ff8b8b" d="M.004 26.57H0l.004-.32h6.858c0 2.604 1.757 5.025 4.388 5.025 2.63 0 4.387-2.406 4.387-5.025l-.004-14.68h6.863l.004 15h-.004c-.17 6.062-5.144 10.93-11.246 10.93S.174 32.632.004 26.57z"/>
  <circle cx="11.25" cy="11.25" r="11.25" fill="#0bbcd6"/>
  <path fill="#f0cf61" d="M43.203 19.203C41.167 21.24 38.355 22.5 35.25 22.5 29.04 22.5 24 17.46 24 11.25S29.04 0 35.25 0c3.105 0 5.917 1.26 7.953 3.297L35.25 11.25l7.953 7.953zm19.5 0C60.667 21.24 57.855 22.5 54.75 22.5c-6.21 0-11.25-5.04-11.25-11.25S48.54 0 54.75 0c3.105 0 5.917 1.26 7.953 3.297L54.75 11.25l7.953 7.953z"/>
  <path fill="#61bfad" d="M114.956 0l11.25 22.5h-22.5L114.956 0zM65.16 0h7.5v22.5h-7.5z"/>
  <path fill="#f0cf61" d="M127.706 0l15 22.5h-15V0z"/>
  <path fill="#ff8b8b" d="M150.206 0l-15 22.5h15V0zM76.41 0h10.5l.053.053L75.766 11.25l11.197 11.197-.053.053h-10.5L65.16 11.25 76.41 0z"/>
  <path fill="#0bbcd6" d="M163.275 0c6.21 0 11.25 5.04 11.25 11.25s-5.04 11.25-11.25 11.25h-11.25V0h11.25zm-64.87 13.9l5.3 5.303c-2.035 2.037-4.85 3.297-7.952 3.297-6.21 0-11.25-5.04-11.25-11.25S89.543 0 95.753 0c3.104 0 5.917 1.26 7.953 3.297L98.404 8.6c-.68-.68-1.616-1.1-2.65-1.1-2.07 0-3.75 1.68-3.75 3.75 0 2.07 1.68 3.75 3.75 3.75 1.034 0 1.97-.42 2.65-1.1z"/>
  <path fill="#61bfad" d="M152.025 0h7.5v37.5h-7.5z"/>
  <path fill="#555" fill-rule="nonzero" d="M45.583 36.19c.09 1.79 1.586 2.926 3.85 2.926 2.39 0 3.875-1.196 3.875-3.117 0-1.51-.84-2.34-2.844-2.79l-1.135-.26c-1.23-.28-1.73-.67-1.73-1.34 0-.84.75-1.39 1.88-1.39 1.08 0 1.844.54 1.97 1.41h1.685c-.083-1.697-1.58-2.886-3.65-2.886-2.21 0-3.67 1.19-3.67 2.98 0 1.47.84 2.36 2.63 2.762l1.28.292c1.263.295 1.803.71 1.803 1.423 0 .828-.84 1.423-2 1.423-1.25 0-2.126-.57-2.235-1.45h-1.72zm9.707-7.184h1.764v9.864H55.29zm5.9 9.864v-6.713h.116l4.84 6.713h1.524v-9.864h-1.695v6.706h-.117l-4.84-6.706h-1.53v9.864h1.7zm17.452-3.95v-1.24h-4.095v1.38h2.372l-.01.206c-.03 1.36-1.06 2.276-2.56 2.276-1.76 0-2.86-1.38-2.86-3.623 0-2.22 1.08-3.59 2.8-3.59 1.26 0 2.142.62 2.5 1.74h1.754c-.316-2.02-1.984-3.32-4.26-3.32-2.81 0-4.608 2.01-4.608 5.17 0 3.2 1.776 5.18 4.633 5.18 2.63 0 4.313-1.634 4.313-4.197zm8.408 3.95h1.893l-3.506-9.864h-1.983l-3.5 9.864h1.784l.848-2.522h3.63l.834 2.522zm-2.7-7.984h.116l1.34 4.067h-2.81l1.354-4.067zm6.29-1.88v9.864h1.76v-3.233h2.14c1.996 0 3.39-1.34 3.39-3.295 0-1.99-1.346-3.336-3.315-3.336H90.64zm1.762 1.476h1.75c1.272 0 1.99.65 1.99 1.86 0 1.176-.74 1.832-1.996 1.832h-1.744v-3.692zm11.73-1.722c-2.863 0-4.675 1.99-4.675 5.175 0 3.185 1.777 5.18 4.676 5.18 2.878 0 4.655-2.002 4.655-5.18 0-3.186-1.79-5.175-4.655-5.175zm0 1.565c1.75 0 2.85 1.402 2.85 3.61 0 2.2-1.092 3.616-2.85 3.616-1.783 0-2.87-1.41-2.87-3.61 0-2.21 1.114-3.61 2.87-3.61zm8.436.145h1.996c1.122 0 1.805.628 1.805 1.653 0 1.046-.65 1.648-1.77 1.648h-2.04v-3.3zm0 4.702h1.955l1.935 3.698h2.017l-2.154-3.972c1.18-.423 1.86-1.51 1.86-2.81 0-1.893-1.29-3.082-3.37-3.082h-4v9.864h1.77v-3.698zm14.13 2.174h-4.62v-2.762h4.367v-1.436h-4.368V30.53h4.62v-1.524h-6.384v9.864h6.385v-1.524z"/>
</svg>