<svg xmlns="http://www.w3.org/2000/svg" viewBox="0 0 233 53">
  <path fill="#333" d="M202.7 0h15c8.28 0 15 6.72 15 15 0 8.28-6.72 15-15 15h-5v20h-10V0zM20.848 28.815C19.05 29.578 17.074 30 15 30 6.72 30 0 23.28 0 15 0 6.72 6.72 0 15 0c8.28 0 15 6.72 15 15 0 .143-.002.286-.006.428l.006 20h-.006C29.767 43.508 23.136 50 15 50S.233 43.51.006 35.427H0L.006 35H9.15c0 3.47 2.342 6.7 5.85 6.7 3.508 0 5.85-3.208 5.85-6.7l-.002-6.185zM200.275 30h-30V0l15 22.5 15-22.5v30zm-116.67-4.396C80.89 28.32 77.14 30 73 30c-8.28 0-15-6.72-15-15 0-8.28 6.72-15 15-15 4.14 0 7.89 1.68 10.605 4.395L73 15l10.605 10.604zM86.88 0h10v5l5-5h14l.07.07L101.023 15l14.93 14.93-.072.07h-14l-5-5v5h-10V0zM57.605 25.604C54.89 28.32 51.14 30 47 30c-8.28 0-15-6.72-15-15 0-8.28 6.72-15 15-15 4.14 0 7.89 1.68 10.605 4.395L47 15l10.605 10.604zm73.6-7.07l7.07 7.07C135.56 28.32 131.81 30 127.67 30c-8.278 0-15-6.72-15-15 0-8.28 6.722-15 15-15 4.14 0 7.89 1.68 10.605 4.395l-7.07 7.07C130.3 10.56 129.05 10 127.67 10c-2.76 0-5 2.24-5 5s2.24 5 5 5c1.38 0 2.63-.56 3.535-1.465zM168.275 30h-30l15-30 15 30z"/>
  <text x="570.05" y="773.827" fill="#333" font-family="'SFProText-Semibold', 'SF Pro Text'" font-weight="600" font-size="18.667" transform="translate(-510.293 -722)">
    SINGAPORE
  </text>
</svg>