<svg xmlns="http://www.w3.org/2000/svg" viewBox="0 0 233 53">
  <path fill="#FF8B8B" d="M.006 35.427H0L.006 35H9.15c0 3.472 2.342 6.7 5.85 6.7 3.508 0 5.85-3.208 5.85-6.7l-.006-19.572h9.15l.006 20h-.006C29.767 43.508 23.136 50 15 50S.233 43.51.006 35.427z"/>
  <circle cx="155" cy="195" r="15" fill="#0BBCD6" transform="translate(-140 -180)"/>
  <path fill="#F0CF61" d="M57.605 25.605C54.89 28.32 51.14 30 47 30c-8.28 0-15-6.72-15-15 0-8.28 6.72-15 15-15 4.14 0 7.89 1.68 10.605 4.395L47 15l10.605 10.605zm26 0C80.89 28.32 77.14 30 73 30c-8.28 0-15-6.72-15-15 0-8.28 6.72-15 15-15 4.14 0 7.89 1.68 10.605 4.395L73 15l10.605 10.605z"/>
  <path fill="#61BFAD" d="M153.275 0l15 30h-30l15-30zM86.88 0h10v30h-10z"/>
  <path fill="#F0CF61" d="M170.275 0l20 30h-20V0z"/>
  <path fill="#FF8B8B" d="M200.275 0l-20 30h20V0zM101.88 0h14l.07.07L101.023 15l14.93 14.93-.072.07h-14l-15-15 15-15z"/>
  <path fill="#0BBCD6" d="M217.7 0c8.28 0 15 6.72 15 15 0 8.28-6.72 15-15 15h-15V0h15zm-86.494 18.535l7.07 7.07C135.558 28.32 131.808 30 127.67 30c-8.278 0-15-6.72-15-15 0-8.28 6.722-15 15-15 4.14 0 7.89 1.68 10.605 4.395l-7.07 7.07C130.3 10.56 129.05 10 127.67 10c-2.76 0-5 2.24-5 5s2.24 5 5 5c1.38 0 2.63-.56 3.535-1.465z"/>
  <path fill="#61BFAD" d="M202.7 0h10v50h-10z"/>
  <text x="570.05" y="773.827" fill="#555" font-family="'SFProText-Semibold', 'SF Pro Text'" font-weight="600" font-size="18.667" transform="translate(-510.293 -722)">
    SINGAPORE
  </text>
</svg>