<svg xmlns="http://www.w3.org/2000/svg" viewBox="0 0 175 40">
  <path fill="#333" d="M152.025 0h11.25c6.21 0 11.25 5.04 11.25 11.25s-5.04 11.25-11.25 11.25h-3.75v15h-7.5V0zM15.635 21.612c-1.347.572-2.83.888-4.385.888C5.04 22.5 0 17.46 0 11.25S5.04 0 11.25 0 22.5 5.04 22.5 11.25c0 .107-.002.214-.005.32l.005 15h-.004c-.17 6.062-5.144 10.93-11.246 10.93S.174 32.632.004 26.57H0l.004-.32h6.858c0 2.604 1.757 5.025 4.388 5.025 2.63 0 4.387-2.406 4.387-5.025v-4.638zm134.57.888h-22.5V0l11.25 16.875L150.205 0v22.5zm-87.502-3.297C60.667 21.24 57.855 22.5 54.75 22.5c-6.21 0-11.25-5.04-11.25-11.25S48.54 0 54.75 0c3.105 0 5.917 1.26 7.953 3.297L54.75 11.25l7.953 7.953zM65.16 0h7.5v3.75L76.41 0h10.5l.053.053L75.766 11.25l11.197 11.197-.053.053h-10.5l-3.75-3.75v3.75h-7.5V0zM43.203 19.203C41.167 21.24 38.355 22.5 35.25 22.5 29.04 22.5 24 17.46 24 11.25S29.04 0 35.25 0c3.105 0 5.917 1.26 7.953 3.297L35.25 11.25l7.953 7.953zm55.2-5.302l5.303 5.31c-2.036 2.04-4.85 3.3-7.953 3.3-6.21 0-11.25-5.04-11.25-11.25S89.543 0 95.753 0c3.104 0 5.917 1.26 7.953 3.297L98.404 8.6c-.68-.68-1.616-1.1-2.65-1.1-2.07 0-3.75 1.68-3.75 3.75 0 2.07 1.68 3.75 3.75 3.75 1.034 0 1.97-.42 2.65-1.1zm27.803 8.6h-22.5L114.956 0l11.25 22.5z"/>
  <path fill="#333" fill-rule="nonzero" d="M45.585 36.19c.088 1.79 1.585 2.926 3.848 2.926 2.393 0 3.876-1.197 3.876-3.117 0-1.51-.85-2.34-2.85-2.79l-1.14-.26c-1.23-.28-1.73-.67-1.73-1.34 0-.84.75-1.39 1.884-1.39 1.08 0 1.845.54 1.97 1.41h1.69c-.085-1.7-1.58-2.89-3.654-2.89-2.206 0-3.67 1.19-3.67 2.98 0 1.47.843 2.36 2.634 2.76l1.28.292c1.264.294 1.804.71 1.804 1.42 0 .83-.84 1.424-2 1.424-1.25 0-2.127-.566-2.236-1.45h-1.72zm9.705-7.185h1.765v9.864H55.29zm5.9 9.865v-6.714h.117l4.84 6.714h1.525v-9.865h-1.696v6.706h-.116l-4.84-6.7h-1.53v9.87h1.7zm17.454-3.95v-1.24H74.55v1.382h2.37l-.006.205c-.028 1.36-1.053 2.277-2.557 2.277-1.757 0-2.857-1.382-2.857-3.624 0-2.214 1.08-3.588 2.803-3.588 1.264 0 2.146.62 2.502 1.743h1.756c-.31-2.017-1.98-3.316-4.25-3.316-2.81 0-4.61 2.01-4.61 5.17 0 3.2 1.78 5.18 4.64 5.18 2.64 0 4.32-1.64 4.32-4.2zm8.408 3.95h1.893l-3.506-9.865h-1.99l-3.5 9.865h1.78l.84-2.523h3.63l.83 2.523zm-2.7-7.985h.115l1.34 4.067h-2.81l1.354-4.067zm6.288-1.88v9.865h1.764v-3.234h2.14c1.996 0 3.39-1.34 3.39-3.295 0-1.98-1.347-3.33-3.315-3.33h-3.98zm1.764 1.477h1.75c1.272 0 1.99.65 1.99 1.86 0 1.175-.74 1.83-1.996 1.83h-1.744v-3.69zm11.73-1.722c-2.864 0-4.675 1.99-4.675 5.174 0 3.185 1.77 5.182 4.67 5.182 2.87 0 4.65-2.004 4.65-5.182 0-3.185-1.79-5.175-4.66-5.175zm0 1.565c1.75 0 2.85 1.4 2.85 3.61 0 2.2-1.093 3.615-2.85 3.615-1.784 0-2.87-1.415-2.87-3.616 0-2.208 1.114-3.61 2.87-3.61zm8.436.143h1.996c1.122 0 1.805.63 1.805 1.655 0 1.045-.64 1.647-1.76 1.647h-2.04v-3.302zm0 4.703h1.955l1.935 3.7h2.016l-2.153-3.97c1.176-.42 1.86-1.51 1.86-2.81 0-1.89-1.3-3.08-3.37-3.08h-4.006v9.87h1.763v-3.7zm14.13 2.18h-4.62v-2.76h4.367v-1.44h-4.368v-2.62h4.62v-1.52h-6.39v9.87h6.38v-1.53z"/>
</svg>