<svg xmlns="http://www.w3.org/2000/svg" viewBox="0 0 117 25">
  <path fill="#333" d="M.003 17.714H0l.003-.214h4.572c0 1.736 1.171 3.35 2.925 3.35 1.754 0 2.925-1.604 2.925-3.35l-.003-9.786h4.575l.003 10h-.003C14.884 21.754 11.568 25 7.5 25S.116 21.754.003 17.714z"/>
  <circle cx="7.5" cy="7.5" r="7.5" fill="#333"/>
  <path fill="#333" d="M28.802 12.802C27.445 14.16 25.57 15 23.5 15c-4.139 0-7.5-3.361-7.5-7.5C16 3.361 19.361 0 23.5 0c2.07 0 3.945.84 5.302 2.198L23.5 7.5l5.302 5.302z"/>
  <path fill="#333" d="M41.802 12.802C40.445 14.16 38.57 15 36.5 15c-4.139 0-7.5-3.361-7.5-7.5C29 3.361 32.361 0 36.5 0c2.07 0 3.945.84 5.302 2.198L36.5 7.5l5.302 5.302z"/>
  <path fill="#333" d="M76.637 0l7.501 15H69.137l7.5-15z"/>
  <path fill="#333" d="M43.44 0h5v15h-5z"/>
  <path fill="#333" d="M85.137 0l10 15h-9.999l-.001-15z"/>
  <path fill="#333" d="M100.137 0l-10 15h10V0z"/>
  <path fill="#333" d="M50.94 0h7l.035.036L50.511 7.5l7.464 7.464-.035.036h-7l-7.5-7.5 7.5-7.5z"/>
  <path fill="#333" d="M108.85 0c4.139 0 7.5 3.361 7.5 7.5 0 4.139-3.361 7.5-7.5 7.5h-7.5V0h7.5z"/>
  <path fill="#333" d="M65.603 9.267l3.534 3.535C67.78 14.16 65.905 15 63.835 15c-4.139 0-7.5-3.361-7.5-7.5 0-4.139 3.361-7.5 7.5-7.5 2.07 0 3.945.84 5.302 2.198l-3.534 3.535C65.15 5.28 64.525 5 63.835 5c-1.38 0-2.5 1.12-2.5 2.5s1.12 2.5 2.5 2.5c.69 0 1.315-.28 1.768-.733z"/>
  <path fill="#333" d="M101.35 0h5v25h-5z"/>
</svg>
