<?xml version="1.0" encoding="UTF-8" standalone="no"?>
<!DOCTYPE svg PUBLIC "-//W3C//DTD SVG 1.1//EN" "http://www.w3.org/Graphics/SVG/1.1/DTD/svg11.dtd">
<svg width="100%" height="100%" viewBox="0 0 253 71" version="1.1" xmlns="http://www.w3.org/2000/svg" xmlns:xlink="http://www.w3.org/1999/xlink" xml:space="preserve" style="fill-rule:evenodd;clip-rule:evenodd;stroke-linejoin:round;stroke-miterlimit:1.41421;">
    <g transform="matrix(1,0,0,1,-10,-10)">
        <g transform="matrix(0.425,0,0,0.425,-416.991,-556.976)">
            <path d="M1121.2,1451.62C1120.85,1453.33 1120.44,1455.02 1119.94,1456.68C1118.61,1461.2 1116.73,1465.54 1114.36,1469.61C1110.28,1476.6 1104.76,1482.72 1098.22,1487.5C1092.35,1491.79 1085.69,1494.98 1078.66,1496.85C1072.78,1498.42 1066.66,1499.05 1060.57,1498.75C1054.33,1498.44 1048.13,1497.13 1042.3,1494.87C1035.58,1492.26 1029.35,1488.41 1024,1483.56C1017.99,1478.1 1013.13,1471.41 1009.82,1464C1007.77,1459.43 1006.32,1454.61 1005.5,1449.67C1005.22,1448 1005.02,1446.3 1004.88,1444.61C1004.83,1443.87 1004.78,1443.14 1004.75,1442.4C1004.75,1442.21 1004.61,1441.69 1004.75,1441.83L1004.71,1440.67C1004.72,1439.53 1004.71,1394.71 1004.71,1392.97C1004.71,1387.28 1005.52,1381.6 1007.14,1376.15C1008.71,1370.88 1011.03,1365.85 1013.99,1361.22C1017.93,1355.09 1023,1349.69 1028.89,1345.4C1033.7,1341.9 1039.03,1339.12 1044.66,1337.22C1050.25,1335.32 1056.12,1334.29 1062.03,1334.14C1068.2,1333.98 1427.72,1334.12 1428.93,1334.12C1431.43,1334.13 1433.92,1334.53 1436.3,1335.32C1438.41,1336.02 1440.42,1337.02 1442.26,1338.29C1444.09,1339.55 1445.74,1341.08 1447.14,1342.81C1447.61,1343.38 1448.02,1344 1448.46,1344.6L1464.18,1368.17L1479.89,1344.6L1481.21,1342.81C1481.71,1342.25 1482.18,1341.68 1482.7,1341.15C1483.74,1340.09 1484.88,1339.13 1486.1,1338.29C1489.15,1336.18 1492.7,1334.81 1496.38,1334.32C1498.02,1334.1 1499.17,1334.09 1500.82,1334.16C1501.13,1334.17 1501.44,1334.22 1501.75,1334.25L1502.01,1334.22L1505.18,1334.12L1540.55,1334.12C1541.28,1334.12 1542,1334.13 1542.73,1334.16C1544.72,1334.24 1546.7,1334.41 1548.67,1334.69C1553.96,1335.43 1559.14,1336.9 1564.03,1339.04C1570.96,1342.07 1577.28,1346.44 1582.56,1351.85C1587.51,1356.92 1591.53,1362.88 1594.37,1369.38C1596.91,1375.18 1598.5,1381.39 1599.06,1387.69C1599.59,1393.64 1599.22,1399.66 1597.95,1405.49C1596.47,1412.29 1593.76,1418.81 1590.01,1424.66C1585.18,1432.19 1578.63,1438.58 1570.99,1443.23C1567.12,1445.59 1562.96,1447.49 1558.65,1448.89C1557.26,1449.34 1555.86,1449.74 1554.45,1450.09C1553.74,1450.26 1553.02,1450.42 1552.3,1450.57L1552.24,1450.58L1552.24,1475.29L1552.13,1477.46C1552.04,1478.18 1551.97,1478.91 1551.84,1479.62C1551.43,1481.76 1550.74,1483.84 1549.77,1485.78C1548.15,1489.03 1545.78,1491.88 1542.88,1494.07C1540.57,1495.82 1537.93,1497.13 1535.14,1497.92C1533.75,1498.32 1532.32,1498.59 1530.88,1498.72C1530.16,1498.79 1529.43,1498.79 1528.71,1498.82L1505.18,1498.82C1504.45,1498.79 1503.73,1498.79 1503.01,1498.72C1501.56,1498.59 1500.13,1498.32 1498.74,1497.92C1495.25,1496.93 1492.01,1495.13 1489.33,1492.68C1486.64,1490.24 1484.55,1487.18 1483.24,1483.79C1482.45,1481.77 1481.95,1479.63 1481.75,1477.46C1481.68,1476.74 1481.68,1476.02 1481.65,1475.29L1481.65,1451.77L1428.88,1451.77L1426.71,1451.66L1426.53,1451.64L1426.35,1451.66L1424.18,1451.77L1121.2,1451.62Z" style="fill:rgb(0,148,238);"/>
        </g>
        <g transform="matrix(6.12323e-17,-1,1,6.12323e-17,-369.991,240.024)">
            <path d="M184.573,390.006L184.573,390L185,390.006L185,399.15C181.528,399.15 178.3,401.492 178.3,405C178.3,408.508 181.508,410.85 185,410.85L204.572,410.844C204.572,410.844 204.572,419.994 204.572,419.994L184.573,420L184.573,419.994C176.491,419.767 170,413.136 170,405C170,396.864 176.491,390.233 184.573,390.006Z" style="fill:rgb(255,139,139);"/>
        </g>
        <g transform="matrix(1,0,0,1,-119.991,-159.976)">
            <circle cx="155" cy="195" r="15" style="fill:rgb(11,188,214);"/>
        </g>
        <g transform="matrix(1,0,0,1,-49.9909,-309.976)">
            <path d="M127.605,355.605C124.889,358.32 121.139,360 117,360C108.721,360 102,353.279 102,345C102,336.721 108.721,330 117,330C121.139,330 124.889,331.68 127.605,334.395L117,345L127.605,355.605Z" style="fill:rgb(240,207,97);"/>
        </g>
        <g transform="matrix(1,0,0,1,-23.9909,-309.976)">
            <path d="M127.605,355.605C124.889,358.32 121.139,360 117,360C108.721,360 102,353.279 102,345C102,336.721 108.721,330 117,330C121.139,330 124.889,331.68 127.605,334.395L117,345L127.605,355.605Z" style="fill:rgb(240,207,97);"/>
        </g>
        <g transform="matrix(1,0,0,1,-52.9909,-309.976)">
            <path d="M226.275,330L241.275,360L211.275,360L226.275,330Z" style="fill:rgb(97,191,173);"/>
        </g>
        <g transform="matrix(1,0,0,1,-54.3864,-309.976)">
            <rect x="161.275" y="330" width="10" height="30" style="fill:rgb(97,191,173);"/>
        </g>
        <g transform="matrix(1,0,0,1,-20.9909,-349.976)">
            <path d="M211.275,370L231.275,400L211.275,400L211.275,370Z" style="fill:rgb(240,207,97);"/>
        </g>
        <g transform="matrix(-1,0,0,1,429.009,-349.976)">
            <path d="M208.725,370L228.725,400L208.725,400L208.725,370Z" style="fill:rgb(255,139,139);"/>
        </g>
        <g transform="matrix(1,0,0,1,-55.3153,-349.976)">
            <path d="M177.204,370L191.204,370L191.275,370.071L176.346,385L191.275,399.929L191.204,400L177.204,400L162.204,385L177.204,370Z" style="fill:rgb(255,139,139);"/>
        </g>
        <g transform="matrix(1,0,0,1,-50.9909,-309.976)">
            <path d="M288.7,330C296.979,330 303.7,336.721 303.7,345C303.7,353.279 296.979,360 288.7,360C288.7,360 273.7,360 273.7,360L273.7,345C273.7,345 273.7,330 273.7,330L288.7,330Z" style="fill:rgb(11,188,214);"/>
        </g>
        <g transform="matrix(1,0,0,1,-58.5954,-359.976)">
            <path d="M209.81,398.535L216.88,405.605C214.164,408.32 210.414,410 206.275,410C197.996,410 191.275,403.279 191.275,395C191.275,386.721 197.996,380 206.275,380C210.414,380 214.164,381.68 216.88,384.395L209.81,391.465C208.905,390.56 207.655,390 206.275,390C203.515,390 201.275,392.24 201.275,395C201.275,397.76 203.515,400 206.275,400C207.655,400 208.905,399.44 209.81,398.535Z" style="fill:rgb(11,188,214);"/>
        </g>
        <g transform="matrix(1,0,0,1.66667,61.0091,-529.976)">
            <rect x="161.7" y="330" width="10" height="30" style="fill:rgb(97,191,173);"/>
        </g>
    </g>
</svg>
